<svg xmlns="http://www.w3.org/2000/svg" width="1200" height="520" viewBox="0 0 1200 520" role="img" aria-labelledby="title desc"><title id="title">Stage topology design</title><desc id="desc">Horizontal chain, vertical ascent and square loop. Shape, room type and difficulty are independent. Design only.</desc><rect width="1200" height="520" fill="#101c29"/><text x="24" y="35" fill="#e6f1f4" font-family="sans-serif" font-size="24">ONE STAGE, MANY SPATIAL SHAPES</text><text x="24" y="63" fill="#9bb4c0" font-family="sans-serif" font-size="15">Design only. Target: safe entry, Motor-verified main route and two reachable exits. Not implemented.</text><g transform="translate(24,90)"><rect width="369" height="372" rx="12" fill="#182a39" stroke="#38596a"/><text x="18" y="32" fill="#73e3ce" font-family="sans-serif" font-size="19">HORIZONTAL CHAIN</text><rect x="16" y="135" width="337" height="92" fill="none" stroke="#688595"/><polyline points="35,182 118,182 202,182 307,182" fill="none" stroke="#efd18e" stroke-width="3"/><rect x="12" y="165" width="46" height="34" rx="5" fill="#244959" stroke="#73e3ce"/><text x="35" y="187" text-anchor="middle" fill="#e6f1f4" font-family="sans-serif" font-size="12">IN</text><rect x="95" y="165" width="46" height="34" rx="5" fill="#244959" stroke="#73e3ce"/><text x="118" y="187" text-anchor="middle" fill="#e6f1f4" font-family="sans-serif" font-size="12">P1</text><rect x="179" y="165" width="46" height="34" rx="5" fill="#244959" stroke="#73e3ce"/><text x="202" y="187" text-anchor="middle" fill="#e6f1f4" font-family="sans-serif" font-size="12">P2</text><rect x="284" y="165" width="46" height="34" rx="5" fill="#244959" stroke="#73e3ce"/><text x="307" y="187" text-anchor="middle" fill="#e6f1f4" font-family="sans-serif" font-size="12">HUB</text><path d="M307 182 l-24 -38" stroke="#73e3ce"/><circle cx="283" cy="140" r="12" fill="#73e3ce"/><text x="283" y="144" text-anchor="middle" fill="#101c29" font-family="sans-serif" font-size="12">A</text><path d="M307 182 l24 -38" stroke="#73e3ce"/><circle cx="331" cy="140" r="12" fill="#73e3ce"/><text x="331" y="144" text-anchor="middle" fill="#101c29" font-family="sans-serif" font-size="12">B</text></g><g transform="translate(417,90)"><rect width="369" height="372" rx="12" fill="#182a39" stroke="#38596a"/><text x="18" y="32" fill="#73e3ce" font-family="sans-serif" font-size="19">VERTICAL ASCENT</text><rect x="80" y="48" width="205" height="297" fill="none" stroke="#688595"/><polyline points="182,315 112,255 230,190 182,115" fill="none" stroke="#efd18e" stroke-width="3"/><rect x="159" y="298" width="46" height="34" rx="5" fill="#244959" stroke="#73e3ce"/><text x="182" y="320" text-anchor="middle" fill="#e6f1f4" font-family="sans-serif" font-size="12">IN</text><rect x="89" y="238" width="46" height="34" rx="5" fill="#244959" stroke="#73e3ce"/><text x="112" y="260" text-anchor="middle" fill="#e6f1f4" font-family="sans-serif" font-size="12">P1</text><rect x="207" y="173" width="46" height="34" rx="5" fill="#244959" stroke="#73e3ce"/><text x="230" y="195" text-anchor="middle" fill="#e6f1f4" font-family="sans-serif" font-size="12">P2</text><rect x="159" y="98" width="46" height="34" rx="5" fill="#244959" stroke="#73e3ce"/><text x="182" y="120" text-anchor="middle" fill="#e6f1f4" font-family="sans-serif" font-size="12">HUB</text><path d="M182 115 l-24 -38" stroke="#73e3ce"/><circle cx="158" cy="73" r="12" fill="#73e3ce"/><text x="158" y="77" text-anchor="middle" fill="#101c29" font-family="sans-serif" font-size="12">A</text><path d="M182 115 l24 -38" stroke="#73e3ce"/><circle cx="206" cy="73" r="12" fill="#73e3ce"/><text x="206" y="77" text-anchor="middle" fill="#101c29" font-family="sans-serif" font-size="12">B</text></g><g transform="translate(810,90)"><rect width="369" height="372" rx="12" fill="#182a39" stroke="#38596a"/><text x="18" y="32" fill="#73e3ce" font-family="sans-serif" font-size="19">SQUARE LOOP</text><rect x="25" y="55" width="310" height="285" fill="none" stroke="#688595"/><path d="M50 80 L172 184 L285 80" fill="none" stroke="#ad95da" stroke-dasharray="4 5"/><text x="109" y="217" fill="#ad95da" font-family="sans-serif" font-size="13">optional branch</text><polyline points="50,305 50,180 50,80 285,80 285,305 50,305" fill="none" stroke="#efd18e" stroke-width="3"/><rect x="27" y="288" width="46" height="34" rx="5" fill="#244959" stroke="#73e3ce"/><text x="50" y="310" text-anchor="middle" fill="#e6f1f4" font-family="sans-serif" font-size="12">IN</text><rect x="27" y="163" width="46" height="34" rx="5" fill="#244959" stroke="#73e3ce"/><text x="50" y="185" text-anchor="middle" fill="#e6f1f4" font-family="sans-serif" font-size="12">P1</text><rect x="27" y="63" width="46" height="34" rx="5" fill="#244959" stroke="#73e3ce"/><text x="50" y="85" text-anchor="middle" fill="#e6f1f4" font-family="sans-serif" font-size="12">P2</text><rect x="262" y="63" width="46" height="34" rx="5" fill="#244959" stroke="#73e3ce"/><text x="285" y="85" text-anchor="middle" fill="#e6f1f4" font-family="sans-serif" font-size="12">P3</text><rect x="262" y="288" width="46" height="34" rx="5" fill="#244959" stroke="#73e3ce"/><text x="285" y="310" text-anchor="middle" fill="#e6f1f4" font-family="sans-serif" font-size="12">HUB</text><path d="M285 305 l-24 -38" stroke="#73e3ce"/><circle cx="261" cy="263" r="12" fill="#73e3ce"/><text x="261" y="267" text-anchor="middle" fill="#101c29" font-family="sans-serif" font-size="12">A</text><path d="M285 305 l24 -38" stroke="#73e3ce"/><circle cx="309" cy="263" r="12" fill="#73e3ce"/><text x="309" y="267" text-anchor="middle" fill="#101c29" font-family="sans-serif" font-size="12">B</text></g><text x="24" y="493" fill="#9bb4c0" font-family="sans-serif" font-size="15">P = challenge module; HUB = safe reward / exit space. Room type and theme do not lock map shape.</text></svg>