<svg xmlns="http://www.w3.org/2000/svg" width="128" height="128" viewBox="0 0 128 128">
<defs><linearGradient id="metal" x2="0" y2="1"><stop stop-color="#d3b16b"/><stop offset=".5" stop-color="#9c7940"/><stop offset="1" stop-color="#554b35"/></linearGradient><linearGradient id="shell" x2="0" y2="1"><stop stop-color="#f0e6cd"/><stop offset="1" stop-color="#aaa78c"/></linearGradient></defs>
<g stroke="#292b29" stroke-width="3" stroke-linejoin="round" stroke-linecap="round"><g id="target"><path d="M57 79H71V105H57Z" fill="url(#metal)"/><path d="M37 108 45 101H83L91 108V116H37Z" fill="url(#metal)"/><path d="M34 36 45 24 83 24 95 36V74L83 86H45L34 74Z" fill="url(#shell)"/><path d="M41 38 49 31H79L88 39V70L79 79H49L41 70Z" fill="#514c39"/><circle cx="64" cy="55" r="20" fill="#e39c45"/><circle cx="64" cy="55" r="12" fill="none" stroke="#5a4931"/><path d="M64 32V43M64 67V78M41 55H52M76 55H87" stroke="#f3e7bf"/><circle cx="64" cy="55" r="4" fill="#5a4931"/></g></g></svg>
